<?xml version="1.0" encoding="utf-8"?>
<svg fill="none" height="512" viewBox="0 0 512 512" width="512" xmlns="http://www.w3.org/2000/svg">
  <rect x="471.587" y="304.489" width="39.577" height="39.577" style="fill: rgb(67, 66, 66);" transform="matrix(0.707107, -0.707107, 0.707107, 0.707107, -92.904274, 461.882843)"/>
  <rect x="471.587" y="304.489" width="39.577" height="39.577" style="fill: rgb(67, 66, 66);" transform="matrix(0.707107, -0.707107, 0.707107, 0.707107, -548.858032, 462.088226)"/>
  <rect height="433.859" rx="50" width="493.746" style="" y="9.172" x="9.638" fill="#3178c6"/>
  <path clip-rule="evenodd" d="M 328.058 218.351 L 328.058 261.946 C 335.145 265.578 343.527 268.303 353.203 270.119 C 362.88 271.935 373.078 272.844 383.799 272.844 C 394.248 272.844 404.173 271.844 413.577 269.846 C 422.981 267.848 431.226 264.556 438.313 259.969 C 445.399 255.384 451.01 249.389 455.144 241.988 C 459.278 234.585 461.345 225.436 461.345 214.538 C 461.345 206.635 460.164 199.712 457.801 193.763 C 455.439 187.814 452.033 182.524 447.58 177.893 C 443.129 173.261 437.791 169.105 431.567 165.426 C 425.343 161.748 418.324 158.275 410.51 155.006 C 404.786 152.644 399.654 150.351 395.111 148.126 C 390.567 145.901 386.706 143.63 383.526 141.315 C 380.345 138.999 377.893 136.546 376.167 133.959 C 374.44 131.369 373.577 128.44 373.577 125.171 C 373.577 122.175 374.35 119.472 375.894 117.065 C 377.439 114.658 379.619 112.593 382.436 110.867 C 385.253 109.142 388.704 107.802 392.793 106.849 C 396.882 105.895 401.425 105.418 406.422 105.418 C 410.056 105.418 413.895 105.691 417.937 106.235 C 421.98 106.781 426.046 107.621 430.136 108.755 C 434.225 109.891 438.199 111.322 442.061 113.046 C 445.922 114.773 449.488 116.77 452.759 119.042 L 452.759 78.309 C 446.127 75.765 438.881 73.882 431.022 72.655 C 423.162 71.429 414.145 70.816 403.97 70.816 C 393.611 70.816 383.799 71.929 374.531 74.153 C 365.265 76.379 357.11 79.852 350.068 84.575 C 343.026 89.298 337.462 95.315 333.373 102.625 C 329.286 109.936 327.24 118.677 327.24 128.849 C 327.24 141.836 330.988 152.916 338.484 162.09 C 345.979 171.262 357.359 179.027 372.623 185.384 C 378.62 187.837 384.208 190.243 389.387 192.604 C 394.566 194.966 399.04 197.418 402.81 199.962 C 406.581 202.504 409.556 205.274 411.738 208.271 C 413.919 211.268 415.009 214.673 415.009 218.489 C 415.009 221.303 414.327 223.915 412.964 226.322 C 411.601 228.728 409.534 230.817 406.763 232.588 C 403.991 234.359 400.539 235.744 396.406 236.742 C 392.271 237.743 387.433 238.241 381.891 238.241 C 372.442 238.241 363.084 236.584 353.816 233.268 C 344.549 229.955 335.963 224.983 328.058 218.351 Z M 254.772 110.945 L 310.695 110.945 L 310.695 75.17 L 154.82 75.17 L 154.82 110.945 L 210.47 110.945 L 210.47 270.231 L 254.772 270.231 Z" fill="#fff" fill-rule="evenodd" style=""/>
  <g transform="matrix(0.045973, 0, 0, -0.045973, -1288.517212, 866.523315)" style="">
    <path d="M 38256.1 9817.7 C 38195.1 9817.7 38143.7 9745.3 38143.7 9659.7 C 38143.7 9574.1 38195.1 9501.7 38256.1 9501.7 C 38316.9 9501.7 38368.4 9574.1 38368.4 9659.7 C 38368.4 9745.3 38316.9 9817.7 38256.1 9817.7" style="fill:#7f4730;fill-opacity:1;fill-rule:nonzero;stroke:none" id="path96"/>
    <path d="M 38256.1 9361.2 C 38116.6 9361.2 38003.2 9495.1 38003.2 9659.7 C 38003.2 9824.3 38116.6 9958.2 38256.1 9958.2 C 38395.5 9958.2 38508.9 9824.3 38508.9 9659.7 C 38508.9 9495.1 38395.5 9361.2 38256.1 9361.2 Z M 36952.5 9361.2 C 36787.9 9361.2 36654 9495.1 36654 9659.7 C 36654 9698.6 36685.4 9730 36724.2 9730 C 36763 9730 36794.5 9698.6 36794.5 9659.7 C 36794.5 9572.6 36865.3 9501.7 36952.5 9501.7 C 37039.6 9501.7 37110.5 9572.6 37110.5 9659.7 C 37110.5 9746.9 37039.6 9817.7 36952.5 9817.7 C 36913.7 9817.7 36882.2 9849.1 36882.2 9888 C 36882.2 9926.8 36913.7 9958.2 36952.5 9958.2 C 37117.1 9958.2 37251 9824.3 37251 9659.7 C 37251 9495.1 37117.1 9361.2 36952.5 9361.2 Z M 38333.2 11162.9 L 36178.9 11162.9 L 36178.9 9876.7 C 36247.8 9829.1 36293 9749.6 36293 9659.7 C 36293 9569.8 36247.8 9490.4 36178.9 9442.8 L 36178.9 8240.4 C 36178.9 8220.5 36177.5 8200.8 36175.3 8181.5 L 38333.2 8181.5 C 38676.5 8181.5 38955.9 8529.9 38955.9 8958.3 C 38955.9 8958.3 38960.72 9537.275 38960.72 9657.375 C 38960.72 9777.575 38955.9 10386.1 38955.9 10386.1 C 38955.9 10814.5 38959.059 11162.9 38959.059 11162.9" style="fill:#7f4730;fill-opacity:1;fill-rule:nonzero;stroke:none" id="path100"/>
    <path d="M 36029.3 9747.8 L 33818.2 9747.8 C 33769.7 9747.8 33730.2 9708.3 33730.2 9659.7 C 33730.2 9611.2 33769.7 9571.7 33818.2 9571.7 L 36029.3 9571.7 C 36077.9 9571.7 36117.4 9611.2 36117.4 9659.7 C 36117.4 9708.3 36077.9 9747.8 36029.3 9747.8" style="fill:#eac033;fill-opacity:1;fill-rule:nonzero;stroke:none" id="path102"/>
    <path d="M 29054.4 9817.7 C 28993.5 9817.7 28942.1 9745.3 28942.1 9659.7 C 28942.1 9574.1 28993.5 9501.7 29054.4 9501.7 C 29115.3 9501.7 29166.7 9574.1 29166.7 9659.7 C 29166.7 9745.3 29115.3 9817.7 29054.4 9817.7" style="fill:#7f4730;fill-opacity:1;fill-rule:nonzero;stroke:none" id="path104"/>
    <path d="M 28245.4 9711.6 L 28245.4 9607.9 C 28249.7 9624.3 28252.4 9641.6 28252.4 9659.7 C 28252.4 9677.9 28249.7 9695.2 28245.4 9711.6" style="fill:#c2c2c4;fill-opacity:1;fill-rule:nonzero;stroke:none" id="path106"/>
    <path d="M 30726.7 9589.5 C 30687.9 9589.5 30656.5 9620.9 30656.5 9659.7 C 30656.5 9746.9 30585.6 9817.7 30498.5 9817.7 C 30411.3 9817.7 30340.5 9746.9 30340.5 9659.7 C 30340.5 9572.6 30411.3 9501.7 30498.5 9501.7 C 30537.3 9501.7 30568.7 9470.3 30568.7 9431.5 C 30568.7 9392.6 30537.3 9361.2 30498.5 9361.2 C 30333.9 9361.2 30200 9495.1 30200 9659.7 C 30200 9824.3 30333.9 9958.2 30498.5 9958.2 C 30663 9958.2 30797 9824.3 30797 9659.7 C 30797 9620.9 30765.5 9589.5 30726.7 9589.5 Z M 29054.4 9361.2 C 28915 9361.2 28801.6 9495.1 28801.6 9659.7 C 28801.6 9824.3 28915 9958.2 29054.4 9958.2 C 29193.8 9958.2 29307.3 9824.3 29307.3 9659.7 C 29307.3 9495.1 29193.8 9361.2 29054.4 9361.2 Z M 31311.6 11162.9 L 28222.346 11177.756 C 28222.346 11177.756 28245.4 10814.5 28245.4 10386.1 L 28245.4 8958.3 C 28245.4 8529.9 28524.8 8181.5 28868.1 8181.5 L 31315.1 8181.5 C 31313 8200.8 31311.6 8220.5 31311.6 8240.4 L 31311.6 11162.9" style="fill:#7f4730;fill-opacity:1;fill-rule:nonzero;stroke:none" id="path108"/>
    <path d="M 33818.2 9923.4 L 35380.1 9923.4 L 35380.1 10727.3 C 35380.1 10836.4 35291.3 10925.1 35182.3 10925.1 L 32308.2 10925.1 C 32199.2 10925.1 32110.4 10836.4 32110.4 10727.3 L 32110.4 9945 C 32232.3 9907.4 32321.1 9793.8 32321.1 9659.7 C 32321.1 9525.7 32232.3 9412 32110.4 9374.4 L 32110.4 8716.4 C 32110.4 8607.3 32199.2 8518.6 32308.2 8518.6 L 35182.3 8518.6 C 35291.3 8518.6 35380.1 8607.3 35380.1 8716.4 L 35380.1 9396.1 L 33818.2 9396.1 C 33672.8 9396.1 33554.6 9514.3 33554.6 9659.7 C 33554.6 9805.2 33672.8 9923.4 33818.2 9923.4" style="fill:#7f4730;fill-opacity:1;fill-rule:nonzero;stroke:none" id="path110"/>
    <path d="M 32110.4 9791 L 32110.4 9528.5 C 32152.7 9556.9 32180.6 9605.1 32180.6 9659.7 C 32180.6 9714.4 32152.7 9762.6 32110.4 9791" style="fill:#7f4730;fill-opacity:1;fill-rule:nonzero;stroke:none" id="path112"/>
    <path d="M 35555.7 8716.4 C 35555.7 8510.5 35388.2 8343 35182.3 8343 L 32308.2 8343 C 32102.3 8343 31934.8 8510.5 31934.8 8716.4 L 31934.8 10727.3 C 31934.8 10933.2 32102.3 11100.7 32308.2 11100.7 L 35182.3 11100.7 C 35388.2 11100.7 35555.7 10933.2 35555.7 10727.3 L 35555.7 9923.4 L 35968.1 9923.4 L 35968.1 11203.3 C 35968.1 11376.6 35827.1 11517.6 35653.8 11517.6 L 31836.7 11517.6 C 31663.4 11517.6 31522.4 11376.6 31522.4 11203.3 L 31522.4 8240.4 C 31522.4 8067.1 31663.4 7926.1 31836.7 7926.1 L 35653.8 7926.1 C 35827.1 7926.1 35968.1 8067.1 35968.1 8240.4 L 35968.1 9396.1 L 35555.7 9396.1 L 35555.7 8716.4" style="fill:#eac033;fill-opacity:1;fill-rule:nonzero;stroke:none" id="path114"/>
    <path d="M 38955.9 10386.1 L 38955.9 8958.3 C 38955.9 8529.9 38676.5 8181.5 38333.2 8181.5 L 36175.3 8181.5 C 36177.5 8200.8 36178.9 8220.5 36178.9 8240.4 L 36178.9 9442.8 C 36247.8 9490.4 36293 9569.8 36293 9659.7 C 36293 9749.6 36247.8 9829.1 36178.9 9876.7 L 36178.9 11162.9 L 38948.341 11162.9 C 38948.341 11162.9 38955.9 10814.5 38955.9 10386.1 Z M 36029.3 9571.7 L 33818.2 9571.7 C 33769.7 9571.7 33730.2 9611.2 33730.2 9659.7 C 33730.2 9708.3 33769.7 9747.8 33818.2 9747.8 L 36029.3 9747.8 C 36077.9 9747.8 36117.4 9708.3 36117.4 9659.7 C 36117.4 9611.2 36077.9 9571.7 36029.3 9571.7 Z M 32110.4 9528.5 L 32110.4 9791 C 32152.7 9762.6 32180.6 9714.4 32180.6 9659.7 C 32180.6 9605.1 32152.7 9556.9 32110.4 9528.5 Z M 33818.2 9396.1 L 35380.1 9396.1 L 35380.1 8716.4 C 35380.1 8607.3 35291.3 8518.6 35182.3 8518.6 L 32308.2 8518.6 C 32199.2 8518.6 32110.4 8607.3 32110.4 8716.4 L 32110.4 9374.4 C 32232.3 9412 32321.1 9525.7 32321.1 9659.7 C 32321.1 9793.8 32232.3 9907.4 32110.4 9945 L 32110.4 10727.3 C 32110.4 10836.4 32199.2 10925.1 32308.2 10925.1 L 35182.3 10925.1 C 35291.3 10925.1 35380.1 10836.4 35380.1 10727.3 L 35380.1 9923.4 L 33818.2 9923.4 C 33672.8 9923.4 33554.6 9805.2 33554.6 9659.7 C 33554.6 9514.3 33672.8 9396.1 33818.2 9396.1 Z M 35968.1 8240.4 C 35968.1 8067.1 35827.1 7926.1 35653.8 7926.1 L 31836.7 7926.1 C 31663.4 7926.1 31522.4 8067.1 31522.4 8240.4 L 31522.4 11203.3 C 31522.4 11376.6 31663.4 11517.6 31836.7 11517.6 L 35653.8 11517.6 C 35827.1 11517.6 35968.1 11376.6 35968.1 11203.3 L 35968.1 9923.4 L 35555.7 9923.4 L 35555.7 10727.3 C 35555.7 10933.2 35388.2 11100.7 35182.3 11100.7 L 32308.2 11100.7 C 32102.3 11100.7 31934.8 10933.2 31934.8 10727.3 L 31934.8 8716.4 C 31934.8 8510.5 32102.3 8343 32308.2 8343 L 35182.3 8343 C 35388.2 8343 35555.7 8510.5 35555.7 8716.4 L 35555.7 9396.1 L 35968.1 9396.1 L 35968.1 8240.4 Z M 28868.1 8181.5 C 28524.8 8181.5 28245.4 8529.9 28245.4 8958.3 L 28245.4 10386.1 C 28245.4 10814.5 28241.01 11153.789 28241.01 11153.789 L 31311.6 11162.9 L 31311.6 8240.4 C 31311.6 8220.5 31313 8200.8 31315.1 8181.5 L 28868.1 8181.5 Z M 38333.2 11373.7 L 36149.9 11373.7 C 36078.9 11579.7 35883.6 11728.3 35653.8 11728.3 L 31836.7 11728.3 C 31606.9 11728.3 31411.5 11579.7 31340.6 11373.7 L 28028.953 11373.7 C 28028.953 11373.7 28034.7 10930.6 28034.7 10386.1 L 28034.7 8958.3 C 28034.7 8413.8 28408.6 7970.7 28868.1 7970.7 L 31387 7970.7 C 31478.9 7818 31645.8 7715.4 31836.7 7715.4 L 35653.8 7715.4 C 35844.7 7715.4 36011.5 7818 36103.5 7970.7 L 38333.2 7970.7 C 38792.8 7970.7 39166.6 8413.8 39166.6 8958.3 L 39166.6 10386.1 C 39166.6 10930.6 39160.919 11373.7 39160.919 11373.7" style="fill:#333333;fill-opacity:1;fill-rule:nonzero;stroke:none" id="path116"/>
    <path d="M 30498.5 9958.2 C 30333.9 9958.2 30200 9824.3 30200 9659.7 C 30200 9495.1 30333.9 9361.2 30498.5 9361.2 C 30537.3 9361.2 30568.7 9392.6 30568.7 9431.5 C 30568.7 9470.3 30537.3 9501.7 30498.5 9501.7 C 30411.3 9501.7 30340.5 9572.6 30340.5 9659.7 C 30340.5 9746.9 30411.3 9817.7 30498.5 9817.7 C 30585.6 9817.7 30656.5 9746.9 30656.5 9659.7 C 30656.5 9620.9 30687.9 9589.5 30726.7 9589.5 C 30765.5 9589.5 30797 9620.9 30797 9659.7 C 30797 9824.3 30663 9958.2 30498.5 9958.2" style="fill:#333333;fill-opacity:1;fill-rule:nonzero;stroke:none" id="path118"/>
    <path d="M 29054.4 9501.7 C 28993.5 9501.7 28942.1 9574.1 28942.1 9659.7 C 28942.1 9745.3 28993.5 9817.7 29054.4 9817.7 C 29115.3 9817.7 29166.7 9745.3 29166.7 9659.7 C 29166.7 9574.1 29115.3 9501.7 29054.4 9501.7 Z M 29054.4 9958.2 C 28915 9958.2 28801.6 9824.3 28801.6 9659.7 C 28801.6 9495.1 28915 9361.2 29054.4 9361.2 C 29193.8 9361.2 29307.3 9495.1 29307.3 9659.7 C 29307.3 9824.3 29193.8 9958.2 29054.4 9958.2" style="fill:#333333;fill-opacity:1;fill-rule:nonzero;stroke:none" id="path120"/>
    <path d="M 38256.1 9501.7 C 38195.1 9501.7 38143.7 9574.1 38143.7 9659.7 C 38143.7 9745.3 38195.1 9817.7 38256.1 9817.7 C 38316.9 9817.7 38368.4 9745.3 38368.4 9659.7 C 38368.4 9574.1 38316.9 9501.7 38256.1 9501.7 Z M 38256.1 9958.2 C 38116.6 9958.2 38003.2 9824.3 38003.2 9659.7 C 38003.2 9495.1 38116.6 9361.2 38256.1 9361.2 C 38395.5 9361.2 38508.9 9495.1 38508.9 9659.7 C 38508.9 9824.3 38395.5 9958.2 38256.1 9958.2" style="fill:#333333;fill-opacity:1;fill-rule:nonzero;stroke:none" id="path122"/>
    <path d="M 36952.5 9958.2 C 36913.7 9958.2 36882.2 9926.8 36882.2 9888 C 36882.2 9849.1 36913.7 9817.7 36952.5 9817.7 C 37039.6 9817.7 37110.5 9746.9 37110.5 9659.7 C 37110.5 9572.6 37039.6 9501.7 36952.5 9501.7 C 36865.3 9501.7 36794.5 9572.6 36794.5 9659.7 C 36794.5 9698.6 36763 9730 36724.2 9730 C 36685.4 9730 36654 9698.6 36654 9659.7 C 36654 9495.1 36787.9 9361.2 36952.5 9361.2 C 37117.1 9361.2 37251 9495.1 37251 9659.7 C 37251 9824.3 37117.1 9958.2 36952.5 9958.2" style="fill:#333333;fill-opacity:1;fill-rule:nonzero;stroke:none" id="path124"/>
  </g>
</svg>